<svg width="75" height="19" viewBox="0 0 75 19" fill="none" xmlns="http://www.w3.org/2000/svg">
<path d="M1 11.5C1 11.5 1.4062 13.4172 2 14.5C2.46944 15.356 2.7313 15.8981 3.5 16.5C4.32791 17.1483 4.96958 17.2904 6 17.5C7.14807 17.7335 9 17.5 9 17.5" stroke="#429D45"/>
<path d="M0.999999 11.5C0.860281 10.7316 0.860281 10.2685 0.999999 9.5C1.11046 8.89249 1.16849 8.52094 1.5 8C2.11127 7.03944 2.86479 6.58733 4 6.5C4.80271 6.43825 5.32078 6.56777 6 7C6.46594 7.29651 6.68563 7.54592 7 8C7.24853 8.35899 7.5 9 7.5 9" stroke="#429D45"/>
<path d="M5 1L9.5 6M5 1C6 1.5 8.45501 0.534114 9.5 2C10.4068 3.27198 9.5 6 9.5 6M5 1C5 1 4.69651 3.37716 5.5 4.5C6.47086 5.85674 9 6 9.5 6" stroke="#429D45"/>
<path d="M15.71 11.94C16.0633 11.94 16.31 11.9967 16.45 12.11C16.5967 12.2233 16.67 12.4167 16.67 12.69C16.67 12.9167 16.5833 13.08 16.41 13.18C16.2433 13.2733 15.98 13.32 15.62 13.32H14V14.38L16.17 14.39C16.5433 14.39 16.81 14.4467 16.97 14.56C17.1367 14.6667 17.22 14.86 17.22 15.14C17.22 15.46 17.1233 15.6833 16.93 15.81C16.7433 15.9367 16.4567 16 16.07 16H12.83C12.4367 16 12.1467 15.8967 11.96 15.69C11.78 15.4767 11.69 15.1033 11.69 14.57V10.35C11.69 9.55 12.07 9.15 12.83 9.15H16.07C16.4567 9.15 16.7433 9.21 16.93 9.33C17.1233 9.45 17.22 9.66667 17.22 9.98C17.22 10.2733 17.1367 10.48 16.97 10.6C16.81 10.7133 16.5433 10.77 16.17 10.77H13.99V11.94H15.71ZM21.2988 10.78C21.0121 10.78 20.7988 10.8633 20.6587 11.03C20.5254 11.1967 20.4588 11.4933 20.4588 11.92V13.1H22.1188V11.9C22.1188 11.62 22.0854 11.3967 22.0188 11.23C21.9521 11.0567 21.8588 10.94 21.7388 10.88C21.6254 10.8133 21.4788 10.78 21.2988 10.78ZM22.1188 14.48H20.4588V15.01C20.4588 15.35 20.3688 15.6 20.1888 15.76C20.0088 15.92 19.6988 16 19.2588 16C19.0721 16 18.9188 15.9733 18.7988 15.92C18.6788 15.8667 18.5721 15.7767 18.4788 15.65C18.3921 15.5233 18.3254 15.34 18.2788 15.1C18.2388 14.8533 18.2054 14.56 18.1788 14.22C18.1588 13.8733 18.1488 13.4367 18.1488 12.91C18.1488 12.45 18.1954 12.03 18.2888 11.65C18.3888 11.2633 18.5188 10.9367 18.6788 10.67C18.8454 10.4033 19.0321 10.17 19.2388 9.97C19.4454 9.76333 19.6688 9.60333 19.9088 9.49C20.1554 9.37667 20.3921 9.29333 20.6188 9.24C20.8521 9.18 21.0854 9.15 21.3188 9.15C21.5988 9.15 21.8754 9.19 22.1488 9.27C22.4221 9.34333 22.6988 9.47333 22.9788 9.66C23.2588 9.84667 23.5021 10.08 23.7088 10.36C23.9221 10.6333 24.0954 10.99 24.2288 11.43C24.3621 11.87 24.4288 12.3633 24.4288 12.91C24.4288 13.79 24.3954 14.4433 24.3288 14.87C24.2688 15.29 24.1621 15.5833 24.0088 15.75C23.8621 15.9167 23.6321 16 23.3188 16C22.8788 16 22.5688 15.92 22.3888 15.76C22.2088 15.6 22.1188 15.35 22.1188 15.01V14.48ZM29.0548 14.5C29.0548 14.88 29.0081 15.1833 28.9148 15.41C28.8214 15.63 28.6914 15.7833 28.5248 15.87C28.3648 15.9567 28.1514 16 27.8848 16C27.4914 16 27.2048 15.8967 27.0248 15.69C26.8514 15.4767 26.7614 15.1033 26.7548 14.57L26.7348 10.88H25.8848C25.4648 10.88 25.1481 10.8133 24.9348 10.68C24.7281 10.5467 24.6248 10.31 24.6248 9.97C24.6248 9.76333 24.6648 9.6 24.7448 9.48C24.8314 9.36 24.9581 9.27667 25.1248 9.23C25.2914 9.17667 25.5148 9.15 25.7948 9.15H30.0748C30.4481 9.15 30.7181 9.21667 30.8848 9.35C31.0514 9.48333 31.1348 9.71333 31.1348 10.04C31.1348 10.26 31.0848 10.4333 30.9848 10.56C30.8914 10.68 30.7648 10.7633 30.6048 10.81C30.4448 10.8567 30.2381 10.88 29.9848 10.88H29.0548V14.5ZM41.4331 14.5C41.4331 15.04 41.3365 15.4267 41.1431 15.66C40.9498 15.8867 40.6565 16 40.2631 16C39.8765 16 39.5931 15.8967 39.4131 15.69C39.2331 15.4767 39.1431 15.1033 39.1431 14.57L39.1331 13.44H37.0931V14.5C37.0931 15.0467 36.9998 15.4333 36.8131 15.66C36.6265 15.8867 36.3298 16 35.9231 16C35.5365 16 35.2531 15.8967 35.0731 15.69C34.8931 15.4767 34.8031 15.1033 34.8031 14.57L34.7731 10.35C34.7731 9.93667 34.8765 9.63333 35.0831 9.44C35.2965 9.24667 35.5765 9.15 35.9231 9.15C36.3231 9.15 36.6165 9.22333 36.8031 9.37C36.9965 9.51667 37.0931 9.81333 37.0931 10.26V11.94H39.1231V10.35C39.1231 10.07 39.1731 9.84 39.2731 9.66C39.3798 9.47333 39.5131 9.34333 39.6731 9.27C39.8398 9.19 40.0365 9.15 40.2631 9.15C40.6498 9.15 40.9398 9.22333 41.1331 9.37C41.3331 9.51667 41.4331 9.81333 41.4331 10.26V14.5ZM45.2159 16.06C44.4025 16.06 43.7292 15.85 43.1959 15.43C42.6692 15.01 42.4059 14.4367 42.4059 13.71C42.4059 12.9233 42.6659 12.3033 43.1859 11.85C43.7125 11.39 44.3892 11.16 45.2159 11.16C45.9959 11.16 46.5659 11.3 46.9259 11.58C47.2925 11.8533 47.4759 12.23 47.4759 12.71C47.4759 12.8033 47.4625 12.8933 47.4359 12.98C47.4159 13.0667 47.3792 13.1533 47.3259 13.24C47.2792 13.32 47.2125 13.3967 47.1259 13.47C47.0459 13.5367 46.9525 13.6 46.8459 13.66C46.7392 13.7133 46.6125 13.7567 46.4659 13.79C46.3192 13.8167 46.1625 13.83 45.9959 13.83L44.5859 13.84C44.6525 14.0533 44.7725 14.2233 44.9459 14.35C45.1192 14.47 45.3392 14.53 45.6059 14.53C45.8925 14.53 46.1859 14.4933 46.4859 14.42C46.6125 14.3867 46.7492 14.3333 46.8959 14.26C47.0492 14.1867 47.1592 14.15 47.2259 14.15C47.3392 14.15 47.4259 14.1833 47.4859 14.25C47.5525 14.3167 47.5859 14.4 47.5859 14.5C47.5859 14.62 47.5325 14.7667 47.4259 14.94C47.3192 15.1067 47.1692 15.2767 46.9759 15.45C46.7892 15.6167 46.5392 15.76 46.2259 15.88C45.9125 16 45.5759 16.06 45.2159 16.06ZM44.5359 13.2C44.9959 13.1933 45.2459 13.19 45.2859 13.19C45.3859 13.19 45.4592 13.13 45.5059 13.01C45.5392 12.9233 45.5559 12.8033 45.5559 12.65C45.5559 12.23 45.4292 12.02 45.1759 12.02C45.0825 12.02 44.9892 12.07 44.8959 12.17C44.8092 12.27 44.7325 12.4133 44.6659 12.6C44.5992 12.78 44.5559 12.98 44.5359 13.2ZM50.2031 16.06C49.6765 16.06 49.2398 15.8467 48.8931 15.42C48.5465 14.9867 48.3731 14.3967 48.3731 13.65C48.3731 12.89 48.5431 12.2867 48.8831 11.84C49.2298 11.3867 49.6698 11.16 50.2031 11.16C50.7431 11.16 51.2431 11.35 51.7031 11.73C51.8831 11.3967 52.1731 11.23 52.5731 11.23C52.9331 11.23 53.2131 11.31 53.4131 11.47C53.6131 11.6233 53.7131 11.91 53.7131 12.33V14.93C53.7131 15.33 53.6298 15.61 53.4631 15.77C53.2965 15.9233 53.0031 16 52.5831 16C52.1431 16 51.8531 15.8767 51.7131 15.63C51.2865 15.9167 50.7831 16.06 50.2031 16.06ZM51.5631 12.69C51.4498 12.4967 51.3031 12.4 51.1231 12.4C50.9498 12.4 50.8098 12.5267 50.7031 12.78C50.5965 13.0333 50.5431 13.3233 50.5431 13.65C50.5431 13.9567 50.5931 14.23 50.6931 14.47C50.7931 14.71 50.9331 14.83 51.1131 14.83C51.2998 14.83 51.4498 14.74 51.5631 14.56V12.69ZM56.8534 14.49C56.8534 15.03 56.7634 15.4167 56.5834 15.65C56.4034 15.8833 56.1267 16 55.7534 16C55.38 16 55.1067 15.8967 54.9334 15.69C54.76 15.4767 54.6734 15.1033 54.6734 14.57L54.6534 10.35C54.6534 10.1767 54.67 10.0233 54.7034 9.89C54.7434 9.75667 54.7934 9.64333 54.8534 9.55C54.92 9.45667 55 9.38 55.0934 9.32C55.1867 9.26 55.2867 9.21667 55.3934 9.19C55.5067 9.16333 55.6267 9.15 55.7534 9.15C56.12 9.15 56.3934 9.22333 56.5734 9.37C56.76 9.51667 56.8534 9.81333 56.8534 10.26V14.49ZM58.2686 13.86V12.68C58.1019 12.6733 57.9686 12.6467 57.8686 12.6C57.7686 12.5467 57.6953 12.48 57.6486 12.4C57.6086 12.32 57.5886 12.22 57.5886 12.1C57.5886 11.72 57.8186 11.5133 58.2786 11.48V10.55C58.2786 10.2967 58.4619 10.07 58.8286 9.87C59.1953 9.66333 59.5586 9.56 59.9186 9.56C60.1386 9.56 60.2819 9.62333 60.3486 9.75C60.4153 9.87667 60.4486 10.0667 60.4486 10.32L60.4586 11.47H60.7286C61.0953 11.47 61.3453 11.52 61.4786 11.62C61.6186 11.7133 61.6886 11.8867 61.6886 12.14C61.6886 12.2467 61.6686 12.3367 61.6286 12.41C61.5886 12.4833 61.5219 12.54 61.4286 12.58C61.3419 12.62 61.2353 12.65 61.1086 12.67C60.9819 12.6833 60.8253 12.69 60.6386 12.69H60.4586V13.79C60.4586 13.8967 60.4619 13.9867 60.4686 14.06C60.4819 14.1267 60.4986 14.18 60.5186 14.22C60.5386 14.26 60.5653 14.2867 60.5986 14.3C60.6386 14.3133 60.6853 14.32 60.7386 14.32C60.8186 14.32 60.8853 14.2933 60.9386 14.24C60.9919 14.18 61.0319 14.1167 61.0586 14.05C61.0919 13.9767 61.1319 13.9133 61.1786 13.86C61.2319 13.8 61.2919 13.77 61.3586 13.77C61.5119 13.77 61.6286 13.8067 61.7086 13.88C61.7953 13.9533 61.8386 14.0433 61.8386 14.15C61.8386 14.33 61.8019 14.5233 61.7286 14.73C61.6619 14.9367 61.5619 15.1367 61.4286 15.33C61.2953 15.5233 61.1086 15.6833 60.8686 15.81C60.6353 15.9367 60.3719 16 60.0786 16C59.4186 16 58.9519 15.8333 58.6786 15.5C58.4053 15.1667 58.2686 14.62 58.2686 13.86ZM65.9084 13.32C65.9084 12.94 65.7617 12.75 65.4684 12.75C65.415 12.75 65.365 12.7567 65.3184 12.77C65.2784 12.7833 65.2384 12.8 65.1984 12.82C65.165 12.84 65.1317 12.87 65.0984 12.91C65.0717 12.9433 65.045 12.9833 65.0184 13.03C64.9984 13.07 64.9817 13.12 64.9684 13.18C64.9617 13.24 64.9584 13.3067 64.9584 13.38V14.48C64.9584 15.0267 64.8684 15.4167 64.6884 15.65C64.515 15.8767 64.2484 15.99 63.8884 15.99C63.515 15.99 63.2417 15.8867 63.0684 15.68C62.895 15.4667 62.8084 15.0933 62.8084 14.56L62.7884 10.3C62.7884 9.88667 62.8884 9.58333 63.0884 9.39C63.2884 9.19667 63.555 9.1 63.8884 9.1C64.2417 9.1 64.5084 9.17333 64.6884 9.32C64.8684 9.46667 64.9584 9.76333 64.9584 10.21V11.66C65.4517 11.36 66.0517 11.21 66.7584 11.21C67.0784 11.21 67.335 11.2933 67.5284 11.46C67.7217 11.62 67.865 11.8767 67.9584 12.23C68.0517 12.5833 68.0984 13.0467 68.0984 13.62C68.0984 13.9133 68.0917 14.1667 68.0784 14.38C68.0717 14.5933 68.0584 14.79 68.0384 14.97C68.0184 15.1433 67.9884 15.2867 67.9484 15.4C67.9084 15.5133 67.8617 15.61 67.8084 15.69C67.755 15.77 67.685 15.8333 67.5984 15.88C67.5184 15.92 67.4284 15.95 67.3284 15.97C67.2284 15.99 67.1084 16 66.9684 16C66.595 16 66.325 15.9333 66.1584 15.8C65.9984 15.66 65.9184 15.45 65.9184 15.17L65.9084 13.32ZM74.1986 13.18C74.1986 14.32 74.1653 15.1167 74.0986 15.57C74.0453 15.9767 73.9619 16.3267 73.8486 16.62C73.7353 16.92 73.5753 17.1833 73.3686 17.41C73.1619 17.6433 72.8986 17.8167 72.5786 17.93C72.2586 18.0433 71.8786 18.1 71.4386 18.1C71.0853 18.1 70.7553 18.0467 70.4486 17.94C70.1486 17.84 69.9086 17.7133 69.7286 17.56C69.5553 17.4133 69.4186 17.2667 69.3186 17.12C69.2186 16.9733 69.1686 16.8467 69.1686 16.74C69.1686 16.6333 69.2019 16.5333 69.2686 16.44C69.3419 16.3533 69.4386 16.31 69.5586 16.31C69.6453 16.31 69.7453 16.3367 69.8586 16.39C69.9786 16.4433 70.0919 16.5033 70.1986 16.57C70.3053 16.6367 70.4319 16.6967 70.5786 16.75C70.7253 16.8033 70.8686 16.83 71.0086 16.83C71.3686 16.83 71.6219 16.74 71.7686 16.56C71.9219 16.38 71.9986 16.1233 71.9986 15.79C71.8853 15.8367 71.7753 15.8767 71.6686 15.91C71.5619 15.9433 71.4586 15.97 71.3586 15.99C71.2586 16.01 71.1619 16.0233 71.0686 16.03C70.9819 16.0367 70.8953 16.04 70.8086 16.04C70.4153 16.04 70.0786 15.93 69.7986 15.71C69.5186 15.49 69.3153 15.22 69.1886 14.9C69.0686 14.5733 69.0086 14.2233 69.0086 13.85C69.0086 13.4767 69.0119 13.16 69.0186 12.9C69.0319 12.64 69.0553 12.41 69.0886 12.21C69.1219 12.0033 69.1586 11.84 69.1986 11.72C69.2453 11.6 69.3086 11.5033 69.3886 11.43C69.4686 11.35 69.5586 11.2967 69.6586 11.27C69.7586 11.2433 69.8786 11.23 70.0186 11.23C70.4386 11.23 70.7319 11.3033 70.8986 11.45C71.0719 11.59 71.1586 11.8133 71.1586 12.12L71.1686 13.73C71.1686 13.8367 71.1686 13.9167 71.1686 13.97C71.1686 14.0167 71.1719 14.0767 71.1786 14.15C71.1919 14.2233 71.2053 14.2767 71.2186 14.31C71.2386 14.3433 71.2619 14.38 71.2886 14.42C71.3219 14.4533 71.3619 14.4767 71.4086 14.49C71.4619 14.5033 71.5253 14.51 71.5986 14.51C71.7986 14.51 71.9219 14.4567 71.9686 14.35C72.0219 14.2367 72.0486 14.0333 72.0486 13.74L72.0586 12.12C72.0586 11.9133 72.0919 11.7467 72.1586 11.62C72.2319 11.4933 72.3519 11.3967 72.5186 11.33C72.6853 11.2633 72.9119 11.23 73.1986 11.23C73.3719 11.23 73.5186 11.26 73.6386 11.32C73.7653 11.3733 73.8653 11.4467 73.9386 11.54C74.0119 11.6267 74.0653 11.76 74.0986 11.94C74.1386 12.1133 74.1653 12.29 74.1786 12.47C74.1919 12.65 74.1986 12.8867 74.1986 13.18Z" fill="url(#paint0_linear_14_13)"/>
<defs>
<linearGradient id="paint0_linear_14_13" x1="11" y1="12.5" x2="75" y2="12.5" gradientUnits="userSpaceOnUse">
<stop stop-color="#429D45"/>
<stop offset="1" stop-color="#FD7F0A"/>
</linearGradient>
</defs>
</svg>
